<svg xmlns="http://www.w3.org/2000/svg" viewBox="0 0 200 200" fill="none">
  <rect width="200" height="200" fill="#252836"/>
  <g transform="translate(60, 50)">
    <path d="M10 30 C10 15, 25 0, 40 0 C55 0, 70 15, 70 30 L70 90 C70 95, 65 100, 60 100 L20 100 C15 100, 10 95, 10 90 Z" fill="#3a3d4d" stroke="#4a4d5d" stroke-width="2"/>
    <path d="M70 40 L80 40 C90 40, 95 50, 95 60 C95 70, 90 80, 80 80 L70 80" fill="none" stroke="#4a4d5d" stroke-width="2"/>
    <ellipse cx="40" cy="20" rx="20" ry="4" fill="#4a4d5d"/>
    <path d="M30 -10 C30 -20, 35 -25, 35 -15" stroke="#5a5d6d" stroke-width="2" fill="none" stroke-linecap="round"/>
    <path d="M40 -15 C40 -25, 45 -30, 45 -20" stroke="#5a5d6d" stroke-width="2" fill="none" stroke-linecap="round"/>
    <path d="M50 -10 C50 -20, 55 -25, 55 -15" stroke="#5a5d6d" stroke-width="2" fill="none" stroke-linecap="round"/>
  </g>
  <text x="100" y="175" text-anchor="middle" fill="#5a5d6d" font-family="sans-serif" font-size="13">No Image</text>
</svg>
